<?xml version="1.0" standalone="no"?>
<!DOCTYPE svg PUBLIC "-//W3C//DTD SVG 20010904//EN"
 "http://www.w3.org/TR/2001/REC-SVG-20010904/DTD/svg10.dtd">
<svg version="1.0" xmlns="http://www.w3.org/2000/svg"
 width="300.000000pt" height="300.000000pt" viewBox="0 0 300.000000 300.000000"
 preserveAspectRatio="xMidYMid meet">
<metadata>
Created by potrace 1.10, written by Peter Selinger 2001-2011
</metadata>
<g transform="translate(0.000000,300.000000) scale(0.100000,-0.100000)"
fill="#023047" stroke="none">
<path d="M0 1500 l0 -1500 1500 0 1500 0 0 1500 0 1500 -1500 0 -1500 0 0
-1500z m2328 754 c22 -15 22 -16 22 -326 0 -276 -2 -314 -17 -330 -20 -22 -51
-23 -75 -1 -17 15 -18 37 -18 290 l0 273 -399 0 -400 0 -15 22 c-21 30 -20 44
4 68 19 19 33 20 448 20 371 0 431 -2 450 -16z m-273 -197 c26 -14 48 -37 63
-67 21 -43 22 -54 22 -330 0 -277 -1 -287 -22 -330 -37 -71 -63 -84 -179 -88
l-99 -4 0 -77 c0 -92 -26 -153 -79 -188 -34 -23 -36 -23 -411 -23 -375 0 -377
0 -410 23 -18 12 -43 35 -54 50 -20 27 -21 42 -24 335 -2 303 -2 308 20 347
34 60 91 85 194 85 l82 0 4 93 c3 105 22 143 86 177 35 18 60 19 402 19 360 1
366 0 405 -22z m-1313 -464 c17 -15 18 -40 18 -380 l0 -363 385 0 c268 0 392
-3 409 -12 33 -15 42 -43 22 -73 l-16 -25 -440 0 c-385 0 -440 2 -454 16 -14
13 -16 65 -16 416 0 360 2 403 17 420 20 22 51 23 75 1z"/>
<path d="M1287 1952 c-13 -14 -17 -38 -17 -90 l0 -72 218 0 c209 0 221 -1 262
-23 30 -16 51 -37 67 -67 21 -40 23 -56 23 -197 l0 -153 78 0 c118 0 112 -17
112 312 0 254 -1 276 -18 291 -17 15 -57 17 -364 17 -321 0 -346 -1 -361 -18z"/>
<path d="M987 1662 c-15 -16 -17 -52 -17 -298 0 -205 3 -283 12 -292 9 -9 104
-12 364 -12 307 0 355 2 368 16 12 11 16 35 16 89 l0 74 -234 3 c-219 3 -236
4 -262 24 -65 48 -69 60 -72 245 l-3 169 -78 0 c-63 0 -81 -4 -94 -18z"/>
<path d="M1270 1531 c0 -123 3 -152 16 -165 13 -14 48 -16 230 -16 l214 0 0
143 c0 202 20 187 -246 187 l-214 0 0 -149z"/>
</g>
</svg>
