<?xml version="1.0" standalone="no"?>
<!DOCTYPE svg PUBLIC "-//W3C//DTD SVG 20010904//EN"
 "http://www.w3.org/TR/2001/REC-SVG-20010904/DTD/svg10.dtd">
<svg version="1.0" xmlns="http://www.w3.org/2000/svg"
 width="300.000000pt" height="300.000000pt" viewBox="0 0 300.000000 300.000000"
 preserveAspectRatio="xMidYMid meet">
<metadata>
Created by potrace 1.10, written by Peter Selinger 2001-2011
</metadata>
<g transform="translate(0.000000,300.000000) scale(0.100000,-0.100000)"
fill="#e63946" stroke="none">
<path d="M1430 2250 c-24 -24 -25 -38 -4 -68 l15 -22 400 0 399 0 0 -273 c0
-253 1 -275 18 -290 24 -22 55 -21 75 1 15 16 17 54 17 330 0 310 0 311 -22
326 -19 14 -79 16 -450 16 -415 0 -429 -1 -448 -20z"/>
</g><g transform="translate(0.000000,300.000000) scale(0.100000,-0.100000)"
fill="#457b9d" stroke="none">
<path d="M1248 2060 c-64 -34 -83 -72 -86 -177 l-4 -93 -82 0 c-103 0 -160
-25 -194 -85 -22 -39 -22 -44 -20 -347 3 -293 4 -308 24 -335 11 -15 36 -38
54 -50 33 -23 35 -23 410 -23 375 0 377 0 411 23 53 35 79 96 79 188 l0 77 99
4 c116 4 142 17 179 88 21 43 22 53 22 330 0 276 -1 287 -22 330 -15 30 -37
53 -63 67 -39 22 -45 23 -405 22 -342 0 -367 -1 -402 -19z m764 -107 c17 -15
18 -37 18 -291 0 -329 6 -312 -112 -312 l-78 0 0 153 c0 141 -2 157 -23 197
-16 30 -37 51 -67 67 -41 22 -53 23 -262 23 l-218 0 0 72 c0 116 -26 108 378
108 307 0 347 -2 364 -17z m-850 -442 c3 -185 7 -197 72 -245 26 -20 43 -21
262 -24 l234 -3 0 -74 c0 -54 -4 -78 -16 -89 -13 -14 -61 -16 -368 -16 -260 0
-355 3 -364 12 -9 9 -12 87 -12 292 0 334 -6 316 111 316 l78 0 3 -169z m552
147 c13 -18 16 -52 16 -165 l0 -143 -214 0 c-182 0 -217 2 -230 16 -13 13 -16
42 -16 165 l0 149 214 0 c211 0 215 0 230 -22z"/>
</g><g transform="translate(0.000000,300.000000) scale(0.100000,-0.100000)"
fill="#e63946" stroke="none">
<path d="M667 1592 c-15 -17 -17 -60 -17 -420 0 -351 2 -403 16 -416 14 -14
69 -16 454 -16 l440 0 16 25 c20 30 11 58 -22 73 -17 9 -141 12 -409 12 l-385
0 0 363 c0 340 -1 365 -18 380 -24 22 -55 21 -75 -1z"/>
</g>
</svg>
