<svg xmlns="http://www.w3.org/2000/svg" version="1.1" xmlns:xlink="http://www.w3.org/1999/xlink" xmlns:svgjs="http://svgjs.dev/svgjs" width="1000" height="1000" viewBox="0 0 1000 623"><g transform="matrix(1,0,0,1,-0.6060606060606233,0.2522267206477409)"><svg viewBox="0 0 600 600" data-background-color="#444444" preserveAspectRatio="xMidYMid meet" height="1900" width="1900" xmlns="http://www.w3.org/2000/svg" xmlns:xlink="http://www.w3.org/1999/xlink"><defs></defs><g id="tight-bounds" transform="matrix(1,0,0,1,0.2400000000000091,-0.09999999999999432)"><svg viewBox="0 0 395.52 247.2" height="247.2" width="395.52"><g><svg></svg></g><g><svg viewBox="0 0 395.52 247.2" height="247.2" width="395.52"><g transform="matrix(1,0,0,1,75.54432,63.7326934354332)"><svg viewBox="0 0 244.43135999999998 119.73461312913359" height="119.73461312913359" width="244.43135999999998"><g><svg viewBox="0 0 244.43135999999998 119.73461312913359" height="119.73461312913359" width="244.43135999999998"><g><svg viewBox="0 0 316.76807495163206 155.16872673782143" height="119.73461312913359" width="244.43135999999998"><g transform="matrix(1,0,0,1,191.23013270564277,1.1995633689107166)"><svg viewBox="0 0 125.5379422459893 152.7696" height="152.7696" width="125.5379422459893"><g><svg viewBox="0 0 125.5379422459893 152.7696" height="152.7696" width="125.5379422459893"><g><svg viewBox="0 0 125.5379422459893 152.7696" height="152.7696" width="125.5379422459893"><g transform="matrix(1,0,0,1,0,0)"><svg width="125.5379422459893" viewBox="3.809999942779541 -26.899999618530273 22.510000228881836 27.389999389648438" height="152.7696" data-palette-color="#ffffff"><path d="M21.61 0L21.61 0 26.32 0 26.32-0.39Q25.88-1.49 25.63-2.97 25.39-4.44 25.39-5.76L25.39-5.76 25.39-18.04Q25.39-20.26 24.58-21.92 23.78-23.58 22.39-24.71L22.39-24.71Q20.97-25.81 19.04-26.35 17.11-26.9 14.87-26.9L14.87-26.9Q12.4-26.9 10.46-26.22 8.52-25.54 7.18-24.44L7.18-24.44Q5.81-23.32 5.09-21.92 4.37-20.53 4.35-19.09L4.35-19.09 8.89-19.09Q8.89-19.92 9.29-20.69 9.69-21.46 10.42-22.02L10.42-22.02Q11.16-22.58 12.22-22.92 13.28-23.27 14.62-23.27L14.62-23.27Q16.06-23.27 17.22-22.9 18.38-22.53 19.19-21.88L19.19-21.88Q20-21.19 20.43-20.24 20.87-19.29 20.87-18.09L20.87-18.09 20.87-16.02 15.94-16.02Q13.18-16.02 10.95-15.48 8.72-14.94 7.13-13.87L7.13-13.87Q5.54-12.77 4.68-11.13 3.81-9.5 3.81-7.32L3.81-7.32Q3.81-5.66 4.46-4.24 5.1-2.81 6.3-1.78L6.3-1.78Q7.47-0.73 9.17-0.12 10.86 0.49 12.96 0.49L12.96 0.49Q14.26 0.49 15.41 0.22 16.55-0.05 17.58-0.51L17.58-0.51Q18.58-0.98 19.42-1.59 20.26-2.2 20.95-2.88L20.95-2.88Q21.02-2.05 21.18-1.28 21.34-0.51 21.61 0ZM13.62-3.44L13.62-3.44Q12.3-3.44 11.3-3.78 10.3-4.13 9.64-4.74L9.64-4.74Q8.98-5.32 8.65-6.15 8.33-6.98 8.33-7.96L8.33-7.96Q8.33-8.98 8.7-9.79 9.08-10.6 9.81-11.18L9.81-11.18Q10.84-12.01 12.59-12.41 14.33-12.82 16.67-12.82L16.67-12.82 20.87-12.82 20.87-7.47Q20.48-6.69 19.8-5.97 19.12-5.25 18.19-4.69L18.19-4.69Q17.24-4.13 16.09-3.78 14.94-3.44 13.62-3.44Z" opacity="1" transform="matrix(1,0,0,1,0,0)" fill="#e5261f" class="undefined-text-0" data-fill-palette-color="primary" id="text-0"></path></svg></g></svg></g></svg></g></svg></g><g><svg viewBox="0 0 155.16489661604277 155.16872673782143" height="155.16872673782143" width="155.16489661604277"><g><svg xmlns="http://www.w3.org/2000/svg" xmlns:xlink="http://www.w3.org/1999/xlink" version="1.0" x="0" y="0" viewBox="4.688320636749268 5 90.25137329101562 90.25360107421875" enable-background="new 0 0 100 100" xml:space="preserve" height="155.16872673782143" width="155.16489661604277" class="icon-icon-0" data-fill-palette-color="accent" id="icon-0"><path d="M59.54 62.261c-0.638 1.033-1.724 1.627-2.862 1.675-1.466 4.391-3.532 8.705-6.296 12.833 0.494 0.666 0.734 1.475 0.631 2.294 2.194 1.486 4.291 3 6.173 4.518 0.023-0.002 0.045-0.004 0.068-0.006 2.869-3.567 6.651-6.918 10.802-9.614 1.865-1.211 3.819-2.234 5.794-3.147 0.407-1.008 1.204-1.872 2.25-2.204 0.168-1.542 0.289-3.08 0.371-4.616-0.939-0.236-1.692-0.962-1.981-2.059C69.605 62.663 64.557 62.771 59.54 62.261z" fill="#e5261f" data-fill-palette-color="accent"></path><path d="M45.676 5.197c-0.969 0.09-1.933 0.209-2.893 0.361 0.526 0.344 1.045 0.734 1.562 1.147 0.109-0.04 0.211-0.086 0.323-0.114C45.002 6.121 45.339 5.654 45.676 5.197z" fill="#e5261f" data-fill-palette-color="accent"></path><path d="M53.14 18.062c3.575-0.091 7.138 0.084 10.627 0.498 0.072-0.188 0.163-0.363 0.272-0.527-3.456-4.9-7.589-9.297-12.408-12.996-0.807-0.032-1.614-0.044-2.419-0.033-0.631 0.81-1.252 1.678-1.873 2.539 0.229 0.439 0.293 0.972 0.119 1.541-0.041 0.136-0.137 0.25-0.199 0.378 1.652 1.799 3.222 3.92 4.64 6.343C52.327 16.532 52.739 17.284 53.14 18.062z" fill="#e5261f" data-fill-palette-color="accent"></path><path d="M56.435 5.487c3.813 3.354 7.139 7.164 10.021 11.3 1.752-0.015 3.462 1.237 4.092 2.903 1.031 0.225 2.054 0.467 3.061 0.737 5.342 1.432 10.333 3.497 14.711 6.158-3.831-6.28-9.25-11.712-16.084-15.625C67.203 8.079 61.847 6.288 56.435 5.487z" fill="#e5261f" data-fill-palette-color="accent"></path><path d="M18.595 28.371c4.531-3.038 9.554-5.384 14.843-7.062 0.635-1.572 2.319-2.732 4.051-2.808 1.518-2.969 3.149-5.799 4.86-8.458C42.199 9.645 42.179 9.183 42.326 8.697c0.013-0.041 0.046-0.074 0.06-0.114-1.263-0.971-2.543-1.711-3.816-2.151-8.19 2.108-15.78 6.503-21.744 12.901-0.249 3.087-0.042 6.024 0.523 8.815C17.783 28.112 18.207 28.18 18.595 28.371z" fill="#e5261f" data-fill-palette-color="accent"></path><path d="M30.497 52.544c-0.225 3.993-0.096 7.993 0.488 11.939 0.309 0.118 0.611 0.274 0.903 0.474 2.511-2.439 5.254-4.778 8.168-6.977-0.102-0.306-0.166-0.621-0.182-0.945-0.412-0.185-0.828-0.365-1.233-0.559-2.598-1.242-5.049-2.689-7.36-4.28C31.032 52.341 30.772 52.463 30.497 52.544z" fill="#e5261f" data-fill-palette-color="accent"></path><path d="M34.515 24.861c-0.345-0.197-0.636-0.451-0.855-0.755-4.895 1.609-9.523 3.82-13.706 6.647 0.015 0.694-0.159 1.441-0.559 2.14-0.125 0.219-0.267 0.421-0.419 0.607 1.354 3.349 3.247 6.442 5.625 9.214 0.997 1.162 2.089 2.26 3.236 3.315 0.212-0.113 0.432-0.205 0.66-0.272 0.535-3.549 1.3-7.068 2.296-10.507C31.825 31.689 33.091 28.216 34.515 24.861z" fill="#e5261f" data-fill-palette-color="accent"></path><path d="M39.235 85.484c1.943-1.733 3.693-3.538 5.278-5.396-0.42-0.669-0.584-1.457-0.44-2.241-3.482-2.066-7.142-3.987-10.821-5.642-0.111 0.158-0.219 0.32-0.345 0.457C34.333 77.091 36.389 81.399 39.235 85.484z" fill="#e5261f" data-fill-palette-color="accent"></path><path d="M39.816 54.039c0.323 0.154 0.661 0.283 0.988 0.431 1.095-1.19 2.901-1.517 4.364-0.679 0.154 0.088 0.289 0.197 0.424 0.304 1.248-0.815 2.509-1.612 3.793-2.371 1.678-0.992 3.386-1.915 5.106-2.804-0.04-0.666 0.102-1.35 0.458-1.973 0.45-0.786 1.159-1.321 1.956-1.587-0.022-4.203-0.466-8.31-1.29-12.182-0.954-4.486-2.381-8.669-4.126-12.353-3.473 0.172-6.943 0.593-10.352 1.278-0.207 0.042-0.41 0.093-0.616 0.136-0.457 1.381-1.731 2.489-3.179 2.887-1.525 3.502-2.871 7.142-3.954 10.876-0.953 3.288-1.698 6.646-2.213 10.033 0.028 0.015 0.058 0.022 0.086 0.038 1.428 0.818 2.058 2.479 1.648 3.997C35.071 51.549 37.386 52.875 39.816 54.039z" fill="#e5261f" data-fill-palette-color="accent"></path><path d="M54.427 20.742c1.602 3.594 2.921 7.603 3.828 11.873 0.875 4.111 1.352 8.473 1.359 12.941 0.057 0.029 0.116 0.045 0.172 0.076 0.232 0.133 0.438 0.291 0.628 0.464 4.261-1.855 8.532-3.333 12.67-4.376 0.064-0.685 0.33-1.344 0.822-1.875 0.045-0.049 0.1-0.083 0.147-0.128-0.042-0.158-0.079-0.318-0.122-0.475-1.48-5.438-3.603-10.606-6.278-15.418-1.529-0.093-2.982-1.118-3.672-2.517C60.844 20.91 57.643 20.714 54.427 20.742z" fill="#e5261f" data-fill-palette-color="accent"></path><path d="M73.896 44.298c-4.016 1.001-8.177 2.445-12.338 4.253 0.03 0.649-0.11 1.313-0.457 1.918-0.424 0.741-1.08 1.255-1.819 1.537-0.031 0.291-0.044 0.58-0.08 0.871-0.184 1.515-0.454 3.035-0.764 4.554 0.8 0.513 1.33 1.293 1.535 2.159 4.976 0.491 9.978 0.353 14.792-0.431 0.374-0.855 0.996-1.6 1.784-2.085-0.125-3.968-0.541-7.881-1.244-11.702-0.376-0.164-0.738-0.384-1.059-0.682C74.115 44.568 74.006 44.433 73.896 44.298z" fill="#e5261f" data-fill-palette-color="accent"></path><path d="M50.763 54.049c-1.303 0.77-2.582 1.58-3.847 2.408 0.016 0.135 0.02 0.27 0.02 0.406 2.144 0.699 4.341 1.256 6.565 1.718 0.522-0.868 1.357-1.427 2.279-1.628 0.302-1.469 0.565-2.938 0.742-4.404 0.025-0.207 0.042-0.414 0.064-0.621-0.107-0.048-0.218-0.084-0.322-0.144-0.215-0.123-0.411-0.265-0.589-0.423C54.024 52.218 52.377 53.094 50.763 54.049z" fill="#e5261f" data-fill-palette-color="accent"></path><path d="M49.567 17.177c-1.356-2.308-2.831-4.322-4.369-5.993-0.131 0.037-0.267 0.024-0.4 0.043-1.678 2.589-3.283 5.341-4.773 8.234 0.029 0.032 0.059 0.062 0.086 0.095l0.493-0.102c3.143-0.63 6.338-1.047 9.54-1.256C49.953 17.852 49.763 17.511 49.567 17.177z" fill="#e5261f" data-fill-palette-color="accent"></path><path d="M34.109 69.636c3.936 1.759 7.859 3.813 11.586 6.036 0.694-0.365 1.53-0.489 2.378-0.328 2.669-3.967 4.662-8.113 6.068-12.333-0.515-0.472-0.869-1.075-1.037-1.729-2.446-0.501-4.858-1.135-7.211-1.91-1.055 1.047-2.676 1.341-4.055 0.657-2.946 2.213-5.71 4.566-8.222 7.023C33.984 67.862 34.153 68.752 34.109 69.636z" fill="#e5261f" data-fill-palette-color="accent"></path><path d="M58.555 88.351c-0.17 0.095-0.315 0.218-0.507 0.287-0.388 0.139-0.78 0.204-1.159 0.207-0.04 0.068-0.087 0.136-0.126 0.204-1.155 2.018-1.931 4.034-2.214 5.951 2.917-0.31 5.793-0.902 8.589-1.765-0.858-1.129-1.927-2.329-3.178-3.572C59.524 89.231 59.031 88.79 58.555 88.351z" fill="#e5261f" data-fill-palette-color="accent"></path><path d="M54.478 87.596c-0.067-0.115-0.134-0.231-0.18-0.361C54.035 86.5 54.209 85.719 54.655 85.054c-1.599-1.259-3.323-2.51-5.142-3.743-0.792 0.471-1.793 0.633-2.794 0.368-1.598 1.888-3.367 3.72-5.313 5.484 0.3 0.491 0.406 1.03 0.288 1.539 1.856 2.256 3.956 4.439 6.348 6.519 1.255 0.048 2.508 0.043 3.758-0.014 0.254-2.46 1.179-5.003 2.611-7.504C54.432 87.667 54.457 87.631 54.478 87.596z" fill="#e5261f" data-fill-palette-color="accent"></path><path d="M79.432 71.499c-0.109 0.978-0.59 1.917-1.368 2.54-0.785 4.627-1.926 9.251-3.482 13.811 5.759-3.774 10.744-8.915 14.398-15.298 0.354-0.618 0.687-1.243 1.009-1.87-1.217-0.277-2.502-0.394-3.836-0.366C84.001 70.359 81.728 70.79 79.432 71.499z" fill="#e5261f" data-fill-palette-color="accent"></path><path d="M38.058 89.99c-0.001 0-0.002-0.001-0.003-0.001-1.128 0.886-2.295 1.756-3.527 2.596 2.987 1.079 6.035 1.825 9.101 2.247-1.526-1.493-2.902-3.037-4.184-4.61C38.999 90.232 38.528 90.165 38.058 89.99z" fill="#e5261f" data-fill-palette-color="accent"></path><path d="M74 73.711c-1.518 0.753-3.023 1.576-4.475 2.521-3.708 2.408-7.066 5.365-9.693 8.506 0.085 0.134 0.16 0.276 0.215 0.431 0.115 0.322 0.141 0.656 0.109 0.985 0.584 0.531 1.182 1.064 1.71 1.588 1.561 1.55 2.871 3.08 3.887 4.552 1.764-0.667 3.503-1.404 5.177-2.289 0.296-0.775 0.583-1.552 0.856-2.331 1.509-4.298 2.635-8.654 3.432-13.019C74.72 74.485 74.298 74.157 74 73.711z" fill="#e5261f" data-fill-palette-color="accent"></path><path d="M65.785 92.338c-0.01-0.015-0.022-0.029-0.032-0.044-0.801 0.303-1.596 0.624-2.412 0.881C64.161 92.916 64.979 92.643 65.785 92.338z" fill="#e5261f" data-fill-palette-color="accent"></path><path d="M70.427 22.435c-0.069 0.122-0.136 0.246-0.222 0.356 2.7 4.918 4.826 10.199 6.333 15.734 0.03 0.112 0.057 0.226 0.087 0.337 0.761 0.075 1.519 0.385 2.138 0.96 0.21 0.194 0.383 0.41 0.538 0.636 2.247-0.322 4.424-0.487 6.499-0.479 2.962 0.013 5.728 0.375 8.222 1.131-0.66-3.228-1.667-6.379-3.012-9.394-4.986-3.912-11.23-6.834-18.101-8.677C72.09 22.82 71.26 22.624 70.427 22.435z" fill="#e5261f" data-fill-palette-color="accent"></path><path d="M79.873 43.103c-0.109 0.57-0.355 1.114-0.771 1.563-0.302 0.326-0.659 0.569-1.046 0.738 0.654 3.693 1.05 7.465 1.185 11.289 0.578 0.206 1.065 0.607 1.4 1.174 5.273-1.54 10.16-3.97 14.298-7.396 0.014-2.124-0.12-4.239-0.402-6.332-2.542-0.981-5.503-1.444-8.747-1.458C83.9 42.673 81.919 42.82 79.873 43.103z" fill="#e5261f" data-fill-palette-color="accent"></path><path d="M79.208 63.365c-0.081 1.824-0.199 3.652-0.399 5.484 2.48-0.749 4.942-1.186 7.293-1.235 1.762-0.036 3.465 0.145 5.071 0.572 2.009-4.588 3.19-9.367 3.601-14.157-4.102 2.981-8.793 5.103-13.776 6.512C80.761 61.648 80.123 62.695 79.208 63.365z" fill="#e5261f" data-fill-palette-color="accent"></path><path d="M36.045 86.835c0.093-0.25 0.249-0.461 0.437-0.644-2.635-3.944-4.608-8.073-6.009-12.32-0.828 0.079-1.687-0.12-2.481-0.613-1.779 2.266-3.318 4.581-4.546 6.921-0.866 1.643-1.579 3.295-2.122 4.949 1.878 1.525 3.897 2.926 6.065 4.167 1.338 0.766 2.7 1.455 4.079 2.07 1.627-1.047 3.139-2.144 4.589-3.268C35.913 87.677 35.894 87.241 36.045 86.835z" fill="#e5261f" data-fill-palette-color="accent"></path><path d="M13.987 31.855c0.049-0.578 0.219-1.178 0.545-1.746 0.11-0.192 0.235-0.368 0.365-0.535-0.515-2.214-0.858-4.497-0.902-6.889-1.207 1.58-2.334 3.248-3.349 5.021-2.477 4.327-4.145 8.892-5.077 13.526 1.691-2.517 3.608-4.822 5.713-6.913C12.149 33.457 13.059 32.645 13.987 31.855z" fill="#e5261f" data-fill-palette-color="accent"></path><path d="M26.173 71.222c-0.317-0.64-0.512-1.335-0.568-2.045-6.887-2.342-13.245-3.382-17.631-2.163 2.441 6.06 6.202 11.618 11.156 16.205 0.531-1.441 1.176-2.874 1.924-4.298C22.426 76.31 24.167 73.735 26.173 71.222z" fill="#e5261f" data-fill-palette-color="accent"></path><path d="M26.219 66.235c0.5-0.873 1.226-1.464 2.041-1.777-0.567-4.04-0.686-8.125-0.448-12.201-0.024-0.013-0.049-0.019-0.073-0.032-1.468-0.841-2.102-2.573-1.62-4.124-1.261-1.153-2.472-2.345-3.567-3.621-2.499-2.908-4.505-6.138-5.967-9.628-0.484 0.042-0.961-0.034-1.383-0.276-0.04-0.023-0.071-0.057-0.109-0.082-0.643 0.568-1.294 1.127-1.903 1.732-3.404 3.383-6.286 7.351-8.46 11.926-0.239 5.574 0.557 11.124 2.318 16.365 4.964-1.42 11.775-0.443 19.058 1.971C26.147 66.405 26.173 66.316 26.219 66.235z" fill="#e5261f" data-fill-palette-color="accent"></path></svg></g></svg></g></svg></g></svg></g></svg></g><g><path d="M244.431 211.297A122.216 122.216 0 1 1 244.431 35.903L233.801 35.903A111.585 111.585 0 1 0 233.801 211.297L244.431 211.297" fill="#e5261f" stroke="transparent" data-fill-palette-color="tertiary"></path></g></svg></g></svg><rect width="395.52" height="247.2" fill="none" stroke="none" visibility="hidden"></rect></g></svg></g></svg>
